# xmcd CD database file
#
# Track frame offsets:
#	150
#	13095
#	23637
#	37547
#	50130
#	61067
#	72935
#	87397
#	101640
#	116402
#	135842
#	149332
#	164550
#	177047
#	189325
#	200195
#	212835
#	228640
#
# Disc length: 3198 seconds
#
# Revision: 0
# Processed by: cddbd v1.5.1PL0 Copyright (c) Steve Scherf et al.
# Submitted via: CDex 1.51
#
DISCID=f80c7c12
DTITLE=The World's Greatest Jazz Band - Plays Cole Porter and Rodgers &Hart
DYEAR=1900
DGENRE=Jazz
TTITLE0=Love For Sale
TTITLE1=All Of You
TTITLE2=It's All Right With Me
TTITLE3=Let's Do It
TTITLE4=I Concentrate On You
TTITLE5=Just One Of Those Things
TTITLE6=Mountain Greenery
TTITLE7=Have You Met Miss Jones
TTITLE8=Isn't It Romantic
TTITLE9=My Funny Valentine
TTITLE10=Blue Room
TTITLE11=You Took Advantage Of Me
TTITLE12=Anything Goes
TTITLE13=It's D'Lovely
TTITLE14=Rosalie
TTITLE15=So In Love
TTITLE16=You'd Be So Nice To Come Home To
TTITLE17=From This Moment On
EXTD=
EXTT0=
EXTT1=
EXTT2=
EXTT3=
EXTT4=
EXTT5=
EXTT6=
EXTT7=
EXTT8=
EXTT9=
EXTT10=
EXTT11=
EXTT12=
EXTT13=
EXTT14=
EXTT15=
EXTT16=
EXTT17=
PLAYORDER=
